<?xml version="1.0" encoding="UTF-8"?>
<svg id="oo-logo" width="136px" height="27px" viewBox="0 0 136 27" version="1.1" xmlns="http://www.w3.org/2000/svg" xmlns:xlink="http://www.w3.org/1999/xlink">
    <!-- Generator: Sketch 64 (93537) - https://sketch.com -->
    <title>orderout-logo 2</title>
    <desc>Created with Sketch.</desc>
    <g id="web" stroke="none" stroke-width="1" fill="none" fill-rule="evenodd">
        <g id="Desktop-HD-Copy-5" transform="translate(-103.000000, -19.000000)" fill-rule="nonzero">
            <g id="orderout-logo-2" transform="translate(103.000000, 19.000000)">
                <path d="M26.733,26.007 C26.6875957,25.9834081 26.6391317,25.9662438 26.589,25.956 C26.0276588,25.9160779 25.5340032,25.5700577 25.305,25.056 C25.16543,24.7689392 25.0587529,24.4670229 24.987,24.156 C24.648,22.791 24.708,21.402 24.771,20.013 C24.771,19.653 24.807,19.29 24.846,18.93 C24.885,18.57 24.951,18.252 25.005,17.913 C25.059,17.574 25.122,17.181 25.2,16.818 C25.263,16.518 25.35,16.218 25.434,15.918 C25.518,15.618 25.617,15.3 25.734,14.997 C25.8178887,14.7078618 25.9273196,14.426755 26.061,14.157 C26.2880102,13.7366076 26.6633848,13.4157746 27.114,13.257 C27.7312376,13.0535217 28.3847637,12.9839758 29.031,13.053 C29.229,13.068 29.463,13.071 29.592,13.278 C29.6553319,13.356061 29.7004297,13.4472815 29.724,13.545 C29.7522384,13.8308438 29.7100071,14.1192529 29.601,14.385 C29.5562534,14.5350091 29.519205,14.6872077 29.49,14.841 C29.391,15.201 29.283,15.558 29.19,15.918 C29.073,16.362 28.962,16.818 28.854,17.256 C28.776,17.583 28.695,17.913 28.641,18.246 C28.575,18.639 28.533,19.041 28.482,19.446 L28.524,19.446 C28.659,19.146 28.785,18.867 28.929,18.585 C29.145,18.174 29.37,17.769 29.595,17.364 C29.655236,17.2603128 29.7213436,17.1601498 29.793,17.064 C30.045,16.722 30.291,16.377 30.552,16.044 C30.7577516,15.7724524 30.9801803,15.5139541 31.218,15.27 C31.569,14.928 31.935,14.604 32.31,14.289 C32.5074801,14.1294644 32.7160008,13.9841014 32.934,13.854 C33.3561907,13.6005825 33.807463,13.3991216 34.278,13.254 C34.7742129,13.0879643 35.297682,13.0187116 35.82,13.05 C36.2241546,13.054158 36.6186814,13.1738693 36.957,13.395 C37.1992411,13.5791645 37.3767667,13.8354736 37.464,14.127 C37.5809156,14.4902919 37.6046425,14.8771432 37.533,15.252 C37.443,15.801 37.365,16.359 37.233,16.896 C37.1197971,17.2860312 37.0612392,17.689879 37.059,18.096 C37.0513945,18.3051293 37.1244259,18.5091876 37.263,18.666 C37.3720107,18.7874471 37.523357,18.8625836 37.686,18.876 C38.1335858,18.9013732 38.5760026,18.7698152 38.937,18.504 C39.024,18.45 39.054,18.309 39.111,18.204 C39.279,17.883 39.438,17.559 39.615,17.241 C39.7316769,17.0118158 39.8692606,16.7938913 40.026,16.59 C40.342814,16.1877876 40.6802669,15.8022702 41.037,15.435 C41.3523289,15.1348757 41.6848935,14.8533978 42.033,14.592 C42.4927477,14.2359673 42.9970088,13.9414788 43.533,13.716 C43.994877,13.5155782 44.4699995,13.3471804 44.955,13.212 C45.453,13.077 45.966,13.008 46.473,12.912 C46.584,12.894 46.614,12.852 46.623,12.744 C46.671,12.246 46.719,11.751 46.791,11.244 C46.851,10.827 46.944,10.416 47.019,9.999 C47.055,9.789 47.079,9.576 47.121,9.366 C47.214,8.934 47.307,8.502 47.421,8.073 C47.502,7.737 47.595,7.401 47.688,7.068 C47.781,6.735 47.871,6.438 47.97,6.123 C48.069,5.808 48.165,5.49 48.27,5.181 C48.375,4.872 48.555,4.5 48.699,4.161 C48.8158402,3.85455578 48.9480069,3.55417695 49.095,3.261 C49.308,2.865 49.554,2.487 49.794,2.109 C49.893,1.95 50.01,1.809 50.121,1.656 C50.4807725,1.18055881 50.9327959,0.782614985 51.45,0.486 C51.8156454,0.26293007 52.2248183,0.120742509 52.65,0.069 C52.86,0.048 53.073,0.021 53.286,0.015 C53.8201159,0.00587010198 54.3440078,0.161989884 54.786,0.462 C55.0792428,0.659148834 55.336901,0.904634163 55.548,1.188 C55.8252748,1.58423088 56.0285506,2.02737217 56.148,2.496 C56.3405754,3.2804915 56.4024057,4.09137994 56.331,4.896 C56.307,5.37 56.262,5.847 56.217,6.321 C56.1935013,6.46750283 56.1624601,6.6126958 56.124,6.756 C56.073,6.993 56.034,7.227 55.98,7.461 C55.926,7.695 55.857,7.938 55.794,8.175 C55.749,8.346 55.713,8.523 55.659,8.691 C55.533,9.072 55.401,9.45 55.269,9.831 C55.137,10.212 54.993,10.635 54.84,11.031 C54.708,11.373 54.54,11.703 54.408,12.039 C54.339,12.198 54.288,12.36 54.213,12.516 C53.985,13.002 53.748,13.485 53.517,13.968 C53.49,14.025 53.469,14.085 53.442,14.139 C53.307,14.418 53.181,14.7 53.034,14.973 C52.806,15.393 52.563,15.804 52.332,16.221 C52.284,16.302 52.257,16.395 52.212,16.476 C51.996,16.854 51.78,17.232 51.555,17.604 C51.273,18.072 50.985,18.54 50.694,19.002 C50.5645394,19.2199488 50.4212458,19.4293779 50.265,19.629 C50.089371,19.8725535 50.0341648,20.1828123 50.115,20.472 C50.1453533,20.7937742 50.2005174,21.112723 50.28,21.426 C50.3743338,21.8599495 50.5812715,22.2614086 50.88,22.59 C51.1533521,22.8491974 51.5299863,22.9695878 51.903,22.917 C52.3527565,22.8721217 52.7819562,22.7062474 53.145,22.437 C53.601,22.092 54.045,21.717 54.474,21.345 C54.5131425,21.2880395 54.5292241,21.2183528 54.519,21.15 C54.519,21.009 54.492,20.871 54.474,20.73 C54.4423207,20.5617894 54.4252571,20.3911528 54.423,20.22 C54.465,19.692 54.531,19.164 54.588,18.639 C54.6599665,18.1441168 54.8055786,17.6627876 55.02,17.211 C55.2059709,16.8183934 55.4195048,16.439446 55.659,16.077 C55.7828537,15.865446 55.9243568,15.6647324 56.082,15.477 C56.3052808,15.2257213 56.5426637,14.9873369 56.793,14.763 C57.0254661,14.5395509 57.2785993,14.3386515 57.549,14.163 C57.9583568,13.908597 58.3866111,13.6859448 58.83,13.497 C59.2268351,13.3286559 59.6414859,13.2058709 60.066,13.131 C60.7726579,12.9945302 61.4960624,12.9672128 62.211,13.05 C62.5981096,13.0961799 62.9786151,13.1867764 63.345,13.32 C63.820119,13.5024002 64.2492703,13.7871354 64.602,14.154 C64.8510928,14.4091551 65.0540949,14.7055382 65.202,15.03 C65.4471138,15.59621 65.5351989,16.2179873 65.457,16.83 C65.4410297,17.1800096 65.381573,17.5266723 65.28,17.862 C65.1554615,18.2872714 64.9382579,18.6796725 64.644,19.011 C64.518,19.143 64.413,19.311 64.29,19.437 C63.9651162,19.7959962 63.5841733,20.09994 63.162,20.337 C62.5000913,20.7321563 61.7956142,21.0511838 61.062,21.288 C60.447,21.483 59.826,21.648 59.205,21.819 C59.061,21.861 58.905,21.885 58.722,21.924 C58.791,22.008 58.845,22.074 58.893,22.143 C59.0413689,22.3479147 59.2290082,22.5212771 59.445,22.653 C59.7914547,22.8767801 60.1807206,23.0259476 60.588,23.091 C61.355469,23.2296993 62.1429368,23.2133787 62.904,23.043 C63.3759713,22.920277 63.8382297,22.7628484 64.287,22.572 C64.7407477,22.3943327 65.1809179,22.183773 65.604,21.942 C66.057,21.675 66.474,21.342 66.906,21.042 C66.942,21.018 66.978,20.997 67.011,20.97 C67.1642195,20.8708763 67.2585476,20.7024333 67.263,20.52 C67.263,20.082 67.341,19.65 67.386,19.215 C67.425,18.861 67.449,18.504 67.506,18.153 C67.587,17.649 67.668,17.145 67.806,16.653 C67.98,15.966 68.169,15.279 68.406,14.607 C68.5662327,14.0245303 68.9742933,13.541878 69.522,13.287 C69.7463229,13.1886408 69.9821996,13.1190874 70.224,13.08 C70.5883692,13.035911 70.9549779,13.0128728 71.322,13.011 C71.5153686,13.0148194 71.7076464,13.0409933 71.895,13.089 C72.1333336,13.1475489 72.2999029,13.3625974 72.297,13.608 C72.2791373,13.8181209 72.2460504,14.0266685 72.198,14.232 C72.138,14.508 72.066,14.781 71.994,15.051 C71.907,15.381 71.817,15.711 71.727,16.041 C71.637,16.371 71.541,16.785 71.427,17.148 C71.2999631,17.6025734 71.2126352,18.0673187 71.166,18.537 C71.136,18.741 71.079,18.939 71.043,19.137 C71.0299378,19.2284381 71.0229226,19.3206383 71.022,19.413 L71.07,19.428 C71.157,19.242 71.235,19.056 71.325,18.873 C71.517,18.492 71.706,18.111 71.925,17.742 C72.0976723,17.4188361 72.2910765,17.1071849 72.504,16.809 C72.822,16.374 73.161,15.957 73.509,15.546 C73.7215465,15.2974806 73.9468496,15.0601613 74.184,14.835 C74.8210646,14.2092599 75.5727786,13.7121915 76.398,13.371 C77.0218827,13.1010108 77.6988272,12.9758786 78.378,13.005 C78.8096967,13.0045412 79.2302088,13.1422588 79.578,13.398 C79.8697457,13.6406105 80.0531923,13.9891589 80.088,14.367 C80.1187621,14.5081897 80.1378267,14.6516761 80.145,14.796 C80.1260388,14.9814425 80.0969958,15.1657152 80.058,15.348 C80.01,15.63 79.968,15.915 79.911,16.194 C79.839,16.56 79.74,16.923 79.68,17.292 C79.5663796,17.6796607 79.5779274,18.0932825 79.713,18.474 C79.7949908,18.6516582 79.9584583,18.7781775 80.151,18.813 C80.4673412,18.8746941 80.795257,18.8270934 81.081,18.678 C81.3765612,18.5290482 81.6630607,18.3627583 81.939,18.18 C81.9798223,18.1364939 81.9995542,18.0772982 81.993,18.018 C81.975,17.295 81.921,16.569 81.936,15.846 C81.951,15.123 82.017,14.433 82.104,13.731 C82.1759712,13.2732516 82.2761622,12.8203885 82.404,12.375 C82.512,11.94 82.626,11.502 82.773,11.076 C82.89,10.728 83.052,10.392 83.202,10.056 C83.325,9.783 83.439,9.504 83.589,9.243 C83.808,8.856 84.054,8.484 84.291,8.106 C84.411381,7.89788958 84.5446403,7.69749962 84.69,7.506 C85.092,7.02 85.488,6.525 85.929,6.075 C86.2982522,5.6949724 86.6997554,5.34767215 87.129,5.037 C88.5790161,3.95981607 90.2403153,3.20124128 92.004,2.811 C92.406,2.712 92.826,2.673 93.237,2.607 C93.9994756,2.49420126 94.7714252,2.45902126 95.541,2.502 C95.986333,2.51993344 96.4301573,2.56501717 96.87,2.637 C97.3585857,2.70210555 97.8418394,2.80236565 98.316,2.937 C98.862,3.108 99.39,3.336 99.915,3.558 C100.482293,3.81364266 101.015422,4.13916394 101.502,4.527 C101.770738,4.74667215 102.027129,4.98102956 102.27,5.229 C102.624248,5.55791843 102.934788,5.93096978 103.194,6.339 C103.371,6.639 103.551,6.903 103.725,7.188 C104.004437,7.64199789 104.213792,8.13555027 104.346,8.652 C104.448,9.054 104.541,9.459 104.646,9.852 C104.838236,10.8497908 104.897752,11.8686129 104.823,12.882 C104.811093,13.3269689 104.772021,13.7707951 104.706,14.211 C104.631,14.733 104.535,15.249 104.424,15.762 C104.337,16.17 104.229,16.572 104.103,16.962 C104.004,17.262 103.875,17.562 103.749,17.877 C103.623,18.192 103.494,18.477 103.35,18.777 C103.206,19.077 103.05,19.377 102.864,19.677 C102.642985,20.0722406 102.39855,20.4539208 102.132,20.82 C101.757,21.306 101.349,21.771 100.932,22.224 C100.670186,22.5109043 100.385226,22.7757967 100.08,23.016 C99.672,23.334 99.246,23.616 98.817,23.916 C98.1686677,24.3483469 97.4744334,24.7075377 96.747,24.987 C96.336,25.146 95.919,25.287 95.496,25.413 C95.148,25.518 94.788,25.587 94.434,25.668 C93.6629588,25.820849 92.8799057,25.9051778 92.094,25.92 C92.076,25.92 92.058,25.938 92.04,25.947 L91.569,25.947 C91.519619,25.9341219 91.4695356,25.9241052 91.419,25.917 C91.119,25.896 90.819,25.89 90.519,25.854 C90.078,25.803 89.64,25.734 89.202,25.659 C88.9603135,25.6173358 88.7217575,25.5592003 88.488,25.485 C88.149,25.38 87.81,25.263 87.48,25.128 C87.15,24.993 86.778,24.828 86.442,24.648 C86.1709944,24.5066145 85.9103424,24.3462132 85.662,24.168 C85.3233633,23.9265898 84.9978973,23.6672184 84.687,23.391 C84.4370258,23.1579834 84.2062759,22.9051618 83.997,22.635 C83.733,22.305 83.481,21.96 83.244,21.609 C83.094,21.387 82.983,21.144 82.851,20.91 C82.8247608,20.8661593 82.7956995,20.8240705 82.764,20.784 C82.7400869,20.7917528 82.7169794,20.8017996 82.695,20.814 C82.1962879,21.139844 81.6630411,21.4094857 81.105,21.618 C80.6332417,21.7815585 80.1420376,21.8824217 79.644,21.918 C78.9237378,21.984011 78.1976727,21.8960651 77.514,21.66 C77.0380382,21.498796 76.6204798,21.2002417 76.314,20.802 C76.0393512,20.4469005 75.8783239,20.0171458 75.852,19.569 L75.852,18.852 L75.876,18.603 C75.909,18.267 75.957,17.931 75.972,17.592 C75.972,17.37 75.843,17.265 75.621,17.268 C75.4055743,17.2751863 75.2012968,17.3654984 75.051,17.52 C74.7818622,17.7596161 74.5292828,18.017207 74.295,18.291 C74.0750862,18.5635968 73.8745928,18.8513049 73.695,19.152 C73.482,19.488 73.281,19.83 73.095,20.181 C72.909,20.532 72.717,20.961 72.534,21.357 C72.426,21.594 72.324,21.837 72.234,22.08 C72.144,22.323 72.018,22.65 71.934,22.935 C71.85,23.22 71.763,23.49 71.676,23.766 C71.571,24.105 71.469,24.444 71.346,24.777 C71.2746061,24.9452315 71.1903568,25.1077123 71.094,25.263 C71.067,25.317 71.037,25.368 71.007,25.422 L70.944,25.503 L70.944,25.503 L70.881,25.569 L70.881,25.569 L70.71,25.689 L70.662,25.728 L70.566,25.788 L70.503,25.788 L70.431,25.839 L70.377,25.839 L70.317,25.866 L70.158,25.899 L70.062,25.929 L69.936,25.929 L69.576,25.947 C69.1626497,25.9904522 68.7474423,25.8839888 68.406,25.647 C68.0472642,25.3780326 67.7945249,24.99149 67.692,24.555 C67.644,24.369 67.575,24.189 67.521,24.021 C67.02,24.297 66.537,24.57 66.051,24.831 C65.4871387,25.1382358 64.8890066,25.3778914 64.269,25.545 C63.8017751,25.6747823 63.3268332,25.774981 62.847,25.845 C62.298,25.914 61.74,25.923 61.185,25.95 C60.972,25.95 60.756,25.95 60.543,25.929 L60.258,25.929 L59.943,25.89 L59.781,25.872 L59.565,25.836 L59.502,25.836 L59.25,25.779 L59.187,25.779 L58.998,25.725 L58.905,25.725 L58.746,25.686 L58.68,25.668 L58.557,25.635 L58.506,25.635 L58.398,25.581 L58.338,25.581 L58.116,25.494 L58.02,25.461 L57.927,25.431 C57.8583199,25.38616 57.7860778,25.3470288 57.711,25.314 C57.2406937,25.1237233 56.8033248,24.8604921 56.415,24.534 C56.187,24.354 55.995,24.126 55.779,23.934 C55.7265677,23.9057306 55.6634323,23.9057306 55.611,23.934 C55.386,24.099 55.179,24.285 54.951,24.45 C54.651,24.666 54.351,24.873 54.051,25.074 C53.85,25.206 53.637,25.323 53.43,25.446 L53.349,25.497 L53.274,25.497 L53.133,25.578 L53.085,25.578 L52.971,25.629 L52.926,25.629 L52.863,25.659 L52.797,25.683 L52.674,25.722 L52.611,25.722 L52.515,25.77 L52.422,25.77 L52.311,25.821 L52.233,25.821 L52.08,25.857 L51.981,25.875 L51.762,25.914 L51.603,25.914 C51.303,25.914 51.003,25.914 50.703,25.914 C50.2235029,25.887284 49.7556146,25.7562343 49.332,25.53 C48.9448028,25.3343503 48.5977894,25.0677301 48.309,24.744 C47.9947471,24.4146748 47.7372572,24.0355361 47.547,23.622 C47.511,23.538 47.463,23.511 47.385,23.595 C47.085,23.895 46.815,24.195 46.509,24.471 C46.2090249,24.7461908 45.8891568,24.9988766 45.552,25.227 C44.8810198,25.6646995 44.1000139,25.9038891 43.299,25.917 C42.966,25.917 42.63,25.917 42.297,25.917 L42.138,25.917 L41.919,25.878 L41.82,25.86 L41.478,25.764 L41.415,25.764 L41.289,25.716 L41.229,25.698 L41.163,25.668 L41.148,25.668 L41.004,25.611 L40.932,25.56 L40.884,25.56 L40.773,25.509 L40.647,25.416 C40.38,25.218 40.098,25.032 39.846,24.816 C39.6794852,24.6481594 39.5250971,24.4687083 39.384,24.279 C39.0784452,23.9057921 38.8573744,23.4708149 38.736,23.004 C38.6491127,22.626948 38.5909459,22.2438494 38.562,21.858 C38.562,21.75 38.523,21.699 38.409,21.741 C37.9636249,21.8922458 37.4989353,21.9791225 37.029,21.999 C36.543322,22.0320129 36.0554176,21.9956474 35.58,21.891 C35.2077296,21.8177653 34.8499847,21.6839911 34.521,21.495 C34.014838,21.1903125 33.6388419,20.7096357 33.465,20.145 C33.3251259,19.6263405 33.3046122,19.082726 33.405,18.555 C33.4491117,18.238741 33.475154,17.9202241 33.483,17.601 C33.4942451,17.5060661 33.4595721,17.4114567 33.3896456,17.346271 C33.3197192,17.2810853 33.2229122,17.2531288 33.129,17.271 C33.0033571,17.2763886 32.8817474,17.3169251 32.778,17.388 C32.4843372,17.6078202 32.2130288,17.8560172 31.968,18.129 C31.6574355,18.5205953 31.3689862,18.9292318 31.104,19.353 C30.9098722,19.6503616 30.7316228,19.9577918 30.57,20.274 C30.37,20.674 30.178,21.082 29.994,21.498 C29.853,21.825 29.733,22.161 29.61,22.497 C29.562,22.623 29.538,22.758 29.493,22.884 C29.37,23.256 29.244,23.625 29.115,23.994 C28.986,24.363 28.896,24.672 28.758,25.002 C28.5745587,25.4745627 28.1566066,25.8162129 27.657,25.902 C27.459,25.941 27.261,25.968 27.057,26.001 L26.733,26.007 Z M86.433,16.014 C86.4262288,16.4882331 86.452291,16.9623662 86.511,17.433 C86.5897407,17.9450856 86.6948807,18.452762 86.826,18.954 C86.9615954,19.4280617 87.1635983,19.8805483 87.426,20.298 C87.6012355,20.5571541 87.7905183,20.8065268 87.993,21.045 C88.4116321,21.5208213 88.9217649,21.9075019 89.493,22.182 C90.0975866,22.4820016 90.7548296,22.6613423 91.428,22.71 C92.1966641,22.7681677 92.969701,22.7146109 93.723,22.551 C94.3825285,22.405855 95.0186356,22.1695866 95.613,21.849 C96.2584626,21.5057521 96.842413,21.0576513 97.341,20.523 C97.7059487,20.1290624 98.0389981,19.7067317 98.337,19.26 C98.6113665,18.8209079 98.8597915,18.3661299 99.081,17.898 C99.1695226,17.7029856 99.2456734,17.5025888 99.309,17.298 C99.42,16.998 99.543,16.698 99.633,16.398 C99.723,16.098 99.762,15.828 99.825,15.54 C99.888,15.252 99.969,14.979 100.002,14.694 C100.104437,13.8661665 100.145549,13.0318941 100.125,12.198 C100.13565,11.4631624 100.050943,10.730047 99.873,10.017 C99.7545549,9.54552419 99.5939065,9.08566833 99.393,8.643 C99.1855045,8.22397893 98.9187689,7.83701019 98.601,7.494 C98.47523,7.34726317 98.3399376,7.2089642 98.196,7.08 C97.6561537,6.6191755 97.0299911,6.27040087 96.354,6.054 C95.8383319,5.89995488 95.3049093,5.81323588 94.767,5.796 C94.4323018,5.7895301 94.0975472,5.80556625 93.765,5.844 C93.423,5.88 93.084,5.943 92.745,6.006 C92.2610169,6.10433224 91.7920185,6.26570804 91.35,6.486 C90.579667,6.8571803 89.8833204,7.36546244 89.295,7.986 C89.0077984,8.28414547 88.7392872,8.5997464 88.491,8.931 C88.2684832,9.22272852 88.067932,9.5305746 87.891,9.852 C87.675,10.248 87.492,10.662 87.291,11.073 C87.1955134,11.2781497 87.11432,11.4896537 87.048,11.706 C86.928,12.108 86.811,12.513 86.727,12.924 C86.643,13.335 86.604,13.677 86.556,14.055 C86.499,14.493 86.448,14.931 86.409,15.372 C86.421,15.582 86.436,15.798 86.436,16.014 L86.433,16.014 Z M46.344,15.75 C46.2973792,15.7554701 46.2512447,15.7644964 46.206,15.777 C45.5387782,15.9728059 44.9203306,16.3070743 44.391,16.758 C43.9413894,17.1370342 43.5554876,17.5857337 43.248,18.087 C43.043556,18.4258994 42.8611776,18.7776291 42.702,19.14 C42.6029918,19.3754699 42.5256714,19.619481 42.471,19.869 C42.3461121,20.4308695 42.3016682,21.0076302 42.339,21.582 C42.361302,21.9450563 42.4692461,22.2976739 42.654,22.611 C42.6710921,22.6437823 42.6911775,22.6749147 42.714,22.704 C43.0799913,23.1215121 43.6466706,23.302711 44.187,23.175 C44.6794693,23.0753414 45.1272296,22.8209799 45.465,22.449 C45.798,22.122 46.095,21.756 46.404,21.402 C46.5350493,21.3030076 46.5841105,21.1288403 46.524,20.976 C46.4388432,20.6319298 46.3885891,20.2801513 46.374,19.926 C46.353,19.701 46.338,19.476 46.335,19.248 C46.323,18.322 46.316,17.395 46.314,16.467 C46.305,16.236 46.326,16.008 46.344,15.75 Z M50.085,15.564 L50.115,15.564 C50.208,15.393 50.304,15.228 50.394,15.057 C50.484,14.886 50.574,14.706 50.658,14.529 C50.853,14.133 51.051,13.734 51.234,13.329 C51.434,12.879 51.634,12.426 51.834,11.97 C52.029,11.499 52.215,11.022 52.398,10.545 C52.509,10.245 52.611,9.945 52.698,9.645 C52.812,9.297 52.92,8.946 53.013,8.595 C53.118,8.193 53.223,7.791 53.295,7.395 C53.397,6.795 53.49,6.168 53.556,5.553 C53.6207393,4.8755738 53.5782167,4.19217561 53.43,3.528 C53.3938226,3.24375144 53.2602411,2.98082911 53.052,2.784 C52.9841023,2.72849081 52.8953148,2.70547183 52.809,2.721 C52.6930959,2.75586732 52.5892071,2.82235614 52.509,2.913 C52.3277537,3.12213821 52.1763177,3.35534972 52.059,3.606 C51.827,4.206 51.622,4.815 51.444,5.433 C51.312,5.892 51.231,6.366 51.129,6.834 C51.102,6.951 51.087,7.071 51.066,7.188 C50.997,7.524 50.919,7.857 50.862,8.193 C50.772,8.727 50.69,9.263 50.616,9.801 C50.553,10.26 50.502,10.701 50.457,11.175 C50.383,11.899 50.313,12.622 50.247,13.344 C50.217,13.644 50.19,13.971 50.166,14.283 C50.13,14.715 50.106,15.141 50.079,15.552 L50.085,15.564 Z M58.14,19.8030405 C58.2233455,19.8035979 58.306607,19.797579 58.389,19.785 C58.866,19.644 59.352,19.524 59.814,19.344 C60.211647,19.1754257 60.5949126,18.9747631 60.96,18.744 C61.2446028,18.5921267 61.4884705,18.3739835 61.671,18.108 C61.8230822,17.9055798 61.952836,17.6873117 62.058,17.457 C62.1220249,17.2411207 62.1484101,17.0158311 62.136,16.791 C62.1484039,16.3792192 61.9029797,16.0033011 61.521,15.849 C61.2028571,15.7119163 60.8479268,15.6855078 60.513,15.774 C60.1677333,15.8511916 59.8458385,16.009568 59.574,16.236 C59.2297358,16.532227 58.9482117,16.8943322 58.746,17.301 C58.5635283,17.6079607 58.4346851,17.9437647 58.365,18.294 L58.239,19.101 C58.2,19.326 58.17,19.545 58.134,19.8030405 L58.14,19.8030405 Z" id="Shape" fill="#ED4B58"></path>
                <path d="M0,15.414 C0.022715715,15.336339 0.0397605593,15.2571306 0.051,15.177 C0.078,14.877 0.081,14.577 0.123,14.277 C0.21,13.707 0.306,13.137 0.423,12.57 C0.486,12.27 0.588,11.97 0.681,11.67 C0.774,11.37 0.87,11.103 0.981,10.821 C1.07143883,10.557854 1.17763075,10.3003887 1.299,10.05 C1.563,9.528 1.83,9.003 2.133,8.505 C2.39136654,8.07591647 2.68010378,7.66586948 2.997,7.278 C3.366,6.828 3.765,6.402 4.173,5.985 C4.42416606,5.7307871 4.69610983,5.49797915 4.986,5.289 C5.421,4.971 5.865,4.665 6.324,4.389 C6.729,4.14 7.161,3.93 7.587,3.714 C8.14298457,3.44224236 8.72491971,3.22715752 9.324,3.072 C9.807,2.943 10.296,2.835 10.785,2.733 C11.0371993,2.68166357 11.292936,2.64957113 11.55,2.637 C12.303,2.607 13.05,2.562 13.812,2.583 C14.3755358,2.61201006 14.9361054,2.68320942 15.489,2.796 C16.1659095,2.92354491 16.826839,3.12474112 17.46,3.396 C18.0072088,3.62263316 18.5315784,3.90089061 19.026,4.227 C19.4621766,4.50011771 19.8649125,4.82331334 20.226,5.19 C20.505,5.49 20.79,5.79 21.051,6.105 C21.4299129,6.56888131 21.7484551,7.07895205 21.999,7.623 C22.2243941,8.10813038 22.4129274,8.60954872 22.563,9.123 C22.7075636,9.73194671 22.8078259,10.3505655 22.863,10.974 C22.9329493,11.624623 22.9459988,12.2801085 22.902,12.933 C22.884,13.446 22.797,13.959 22.737,14.472 C22.704,14.742 22.677,15.015 22.623,15.282 C22.5509807,15.6767068 22.457847,16.0672675 22.344,16.452 C22.164,17.037 21.969,17.619 21.744,18.186 C21.584029,18.5859997 21.3955444,18.9739972 21.18,19.347 C20.907,19.827 20.616,20.298 20.301,20.754 C19.6115828,21.7270539 18.7827003,22.5933372 17.841,23.325 C17.43,23.625 17.016,23.925 16.587,24.18 C15.975423,24.5565486 15.3283114,24.8720658 14.655,25.122 C14.541,25.164 14.427,25.215 14.31,25.26 L14.088,25.341 L14.028,25.341 L13.929,25.392 L13.839,25.392 L13.746,25.422 L13.617,25.458 L13.524,25.482 L13.461,25.482 L13.362,25.527 L13.239,25.527 L13.11,25.575 L13.02,25.575 L12.924,25.599 L12.735,25.638 L12.639,25.662 L12.513,25.662 L12.324,25.71 L12.198,25.71 L11.976,25.761 L11.853,25.761 L11.664,25.791 L11.409,25.815 L11.109,25.851 L10.857,25.851 L10.212,25.875 C9.32511283,25.9078083 8.43737713,25.8393661 7.566,25.671 C6.91480284,25.5322276 6.27342259,25.3508372 5.646,25.128 C4.91876143,24.8621936 4.23292387,24.4945281 3.609,24.036 C3.10878318,23.713671 2.65030982,23.3307702 2.244,22.896 C2.145,22.773 2.04,22.653 1.944,22.524 C1.713,22.224 1.461,21.909 1.26,21.579 C1.08030273,21.2696071 0.922903326,20.9477905 0.789,20.616 C0.642,20.277 0.51,19.932 0.396,19.578 C0.330058783,19.34787 0.280929383,19.1132521 0.249,18.876 C0.183,18.471 0.126,18.063 0.06,17.658 C0.06,17.583 0.027,17.508 0.009,17.433 L0,15.414 Z M18.33,12.582 C18.3375898,11.9494891 18.2853573,11.3176774 18.174,10.695 C18.1197808,10.3160874 18.0324465,9.94265779 17.913,9.579 C17.799,9.33 17.724,9.066 17.613,8.811 C17.4711061,8.44273958 17.2682762,8.1009712 17.013,7.80000034 C16.7789018,7.51947383 16.5263405,7.25488575 16.257,7.008 C15.7561385,6.58196206 15.1730836,6.26337516 14.544,6.072 C14.0459046,5.91610735 13.5294846,5.82633901 13.008,5.805 C12.2291349,5.77709989 11.4504866,5.86608828 10.698,6.069 C10.1450417,6.21397554 9.61277008,6.42869876 9.114,6.708 C8.47322337,7.06315493 7.89215408,7.51667242 7.392,8.052 C7.06409374,8.39100445 6.7631779,8.75511261 6.492,9.141 C6.23561628,9.52468804 6.00606887,9.92564421 5.805,10.341 C5.62784212,10.6990452 5.47060247,11.0666054 5.334,11.442 C5.06902511,12.2089988 4.86833269,12.9967165 4.734,13.797 C4.6530845,14.4841875 4.60802344,15.1751239 4.599,15.867 C4.599,16.767 4.578,17.667 4.866,18.537 C4.953,18.807 5.043,19.074 5.118,19.347 C5.24653587,19.7651045 5.44982465,20.1564354 5.718,20.502 C5.90307108,20.75596 6.10344224,20.9984091 6.318,21.228 C6.74444695,21.6705363 7.25423461,22.0243289 7.818,22.269 C8.35089294,22.5106376 8.92104163,22.659769 9.504,22.71 C10.3069441,22.784359 11.1165632,22.7337578 11.904,22.56 C12.4238046,22.4492074 12.9277143,22.2738469 13.404,22.038 C13.7418346,21.8726422 14.0667514,21.6821046 14.376,21.468 C14.73399,21.2186721 15.0720126,20.9418346 15.387,20.64 C15.657752,20.3621396 15.9131321,20.0697044 16.152,19.764 C16.5299557,19.2819712 16.8520145,18.7586258 17.112,18.204 C17.205,18.021 17.262,17.826 17.34,17.637 C17.451,17.352 17.583,17.073 17.676,16.785 C17.775508,16.4664683 17.8586171,16.1430437 17.925,15.816 C18.036,15.288 18.165,14.76 18.225,14.223 C18.285,13.686 18.306,13.083 18.33,12.582 Z" id="Shape" fill="#ED4B58"></path>
                <polygon id="Path" fill="#FEFDFD" points="11.097 25.944 11.397 25.908 11.397 26.007 11.271 26.007"></polygon>
                <polygon id="Path" fill="#FEFBFB" points="60.462 25.956 60.462 26.007 60.021 26.007 60.177 25.947"></polygon>
                <polygon id="Path" fill="#FEFAFB" points="60.177 25.947 60.021 26.007 59.925 26.007 59.862 25.908"></polygon>
                <polygon id="Path" fill="#FEFEFE" points="11.097 25.944 11.286 26.007 10.845 26.007 10.845 25.953"></polygon>
                <polygon id="Path" fill="#FEFEFE" points="129.216 26.007 129.216 25.956 129.468 25.956 129.624 26.016"></polygon>
                <polygon id="Path" fill="#FEFCFC" points="117.111 26.007 117.111 25.956 117.33 25.956 117.489 26.016"></polygon>
                <polygon id="Path" fill="#FEFCFC" points="129.624 26.007 129.468 25.947 129.72 25.911 129.72 26.007"></polygon>
                <polygon id="Path" fill="#FEFBFB" points="108.945 26.007 108.912 25.899 109.104 25.944 109.041 26.007"></polygon>
                <polygon id="Path" fill="#FEFBFB" points="117.489 26.007 117.33 25.947 117.552 25.911 117.552 26.007"></polygon>
                <polygon id="Path" fill="#FEFBFB" points="41.895 26.007 41.832 25.908 42.051 25.947 41.958 26.007"></polygon>
                <polygon id="Path" fill="#FEFDFD" points="41.958 26.007 42.051 25.947 42.21 25.947 42.21 25.998"></polygon>
                <polygon id="Path" fill="#FEFEFE" points="109.044 26.007 109.107 25.944 109.233 25.944 109.233 25.995"></polygon>
                <path d="M109.23,25.956 L109.104,25.956 L108.912,25.911 L108.849,25.911 L108.348,25.713 C108.196393,25.6127929 108.050189,25.504642 107.91,25.389 C107.711796,25.2258241 107.531756,25.0417611 107.373,24.84 C107.173007,24.5462894 106.99454,24.2384848 106.839,23.919 C106.767,23.775 106.767,23.589 106.695,23.442 C106.594135,23.1990936 106.538228,22.9398869 106.53,22.677 C106.507588,22.5370803 106.495556,22.3956947 106.494,22.254 C106.512,21.495 106.515,20.733 106.566,19.974 C106.599,19.455 106.704,18.942 106.779,18.426 C106.809,18.228 106.83,18.03 106.872,17.826 C106.935,17.526 107.01,17.226 107.088,16.947 C107.199,16.539 107.307,16.128 107.439,15.723 C107.571,15.318 107.703,14.967 107.856,14.595 C107.951864,14.3612614 108.066227,14.1355451 108.198,13.92 C108.398175,13.5835013 108.720628,13.3373621 109.098,13.233 C109.779067,13.0250392 110.502065,12.9950864 111.198,13.146 C111.363102,13.180603 111.507693,13.2793792 111.599962,13.4205962 C111.692232,13.5618133 111.72462,13.7339019 111.69,13.899 C111.621,14.262 111.528,14.619 111.438,14.976 C111.327,15.402 111.207,15.822 111.096,16.248 C111,16.608 110.907,16.971 110.817,17.334 C110.79,17.451 110.772,17.571 110.751,17.688 C110.643,18.288 110.565,18.873 110.424,19.455 C110.294556,20.012688 110.230127,20.5834896 110.232,21.156 C110.23703,21.3376297 110.272523,21.5171254 110.337,21.687 C110.396078,21.8326284 110.51266,21.9474039 110.659194,22.0041998 C110.805727,22.0609957 110.969209,22.0547721 111.111,21.987 C111.345238,21.8480796 111.564414,21.6852057 111.765,21.501 C112.149303,21.1404589 112.469827,20.7174884 112.713,20.25 C112.896,19.917 113.097,19.596 113.268,19.257 C113.478,18.837 113.67,18.408 113.868,17.982 C114.03,17.619 114.189,17.256 114.327,16.884 C114.486,16.458 114.627,16.02 114.768,15.588 C114.861,15.288 114.939,15.012 115.035,14.73 C115.101,14.538 115.182,14.346 115.266,14.163 C115.497152,13.5928207 116.022449,13.1953921 116.634,13.128 C116.932188,13.0865934 117.232954,13.0665424 117.534,13.068 C117.800237,13.0775866 118.065183,13.1097014 118.326,13.164 C118.591826,13.2642966 118.750862,13.5372889 118.707,13.818 C118.683,14.085 118.662,14.352 118.614,14.613 C118.542,15.021 118.452,15.429 118.359,15.834 C118.266,16.239 118.155,16.668 118.059,17.085 C117.963,17.502 117.846,17.952 117.759,18.387 C117.672,18.75 117.588,19.113 117.501,19.476 C117.414,19.839 117.345,20.112 117.273,20.43 C117.249,20.532 117.246,20.637 117.231,20.73 C117.177,21.111 117.117,21.489 117.069,21.87 C117.046062,22.1274046 117.1175,22.3843685 117.27,22.593 C117.486646,22.9133865 117.891915,23.0476552 118.257,22.92 C118.574556,22.8416584 118.873355,22.7009273 119.136,22.506 C119.560278,22.2115967 119.95691,21.8792287 120.321,21.513 C120.783,21.054 121.242,20.589 121.71,20.136 C121.846081,20.0120687 121.996084,19.9043481 122.157,19.815 C122.224282,19.7875668 122.265699,19.71935 122.259,19.647 C122.238,18.786 122.217,17.928 122.211,17.067 C122.211,16.662 122.238,16.257 122.268,15.867 C122.268,15.708 122.226,15.672 122.076,15.672 C121.608,15.672 121.143,15.672 120.675,15.648 C120.513598,15.6345174 120.353254,15.6104658 120.195,15.576 L119.874,15.426 L119.811,15.363 L119.811,15.363 L119.691,15.264 C119.692703,15.2560907 119.692703,15.2479093 119.691,15.24 L119.631,15.141 C119.629595,15.1320548 119.629595,15.1229452 119.631,15.114 C119.598,14.883 119.559,14.655 119.538,14.421 C119.527538,14.2751874 119.527538,14.1288126 119.538,13.983 C119.544099,13.8962793 119.556127,13.8100778 119.574,13.725 L119.574,13.674 C119.574,13.647 119.598,13.62 119.613,13.593 L119.613,13.539 L119.667,13.44 C119.836556,13.129408 120.153808,12.9277268 120.507,12.906 C121.14,12.87 121.776,12.87 122.412,12.855 C122.64,12.855 122.631,12.855 122.67,12.633 C122.709,12.411 122.778,12.138 122.835,11.889 C122.856,11.784 122.877,11.676 122.901,11.571 C122.991,11.193 123.075,10.815 123.174,10.437 C123.234,10.197 123.312,9.96 123.39,9.723 C123.522,9.315 123.645,8.904 123.798,8.502 C123.987,7.992 124.197,7.491 124.398,6.987 C124.470893,6.81665458 124.553015,6.65040809 124.644,6.489 C124.773,6.258 124.911,6.03 125.043,5.802 C125.076,5.742 125.1,5.676 125.136,5.622 C125.295,5.376 125.454,5.133 125.619,4.893 C125.784,4.653 125.919,4.44 126.096,4.23 C126.4879,3.74058891 126.932589,3.29589988 127.422,2.904 C127.819163,2.58926127 128.261017,2.33547336 128.733,2.151 C129.359334,1.90218562 130.039853,1.82151617 130.707,1.917 C131.16457,1.98848151 131.589464,2.19778922 131.925,2.517 C132.169891,2.73219402 132.373253,2.99046368 132.525,3.279 C132.65607,3.56368192 132.769289,3.85624782 132.864,4.155 C133.060093,4.86881153 133.10606,5.61552655 132.999,6.348 C132.943995,6.95639118 132.815044,7.55581061 132.615,8.133 C132.465259,8.61724711 132.253502,9.08008814 131.985,9.51 C131.82,9.759 131.685,10.038 131.514,10.275 C131.199,10.689 130.851,11.085 130.518,11.475 L130.293,11.736 L130.11,11.898 L130.11,11.898 L130.044,11.952 L130.044,11.952 L129.858,12.111 L129.858,12.111 L129.543,12.393 L129.543,12.393 L129.48,12.456 L129.48,12.456 L129.288,12.609 L129.03,12.825 C129.103635,12.834873 129.177736,12.8408812 129.252,12.843 C130.323,12.843 131.394,12.843 132.465,12.843 C132.682227,12.8555321 132.895992,12.903148 133.098,12.984 C133.284977,13.0759157 133.401912,13.2676889 133.398,13.476 C133.458304,13.8284596 133.401398,14.1909704 133.236,14.508 C133.02555,14.862888 132.70082,15.1357885 132.315,15.282 C131.482705,15.5706809 130.602985,15.6979553 129.723,15.657 C128.571,15.657 127.422,15.657 126.27,15.657 C126.111,15.657 126.063,15.705 126.063,15.861 C126.063,16.896 126.039,17.931 126.063,18.966 C126.073111,19.3475611 126.113235,19.7277349 126.183,20.103 C126.237238,20.4362552 126.322612,20.763689 126.438,21.081 C126.673012,21.8575815 127.258105,22.4793122 128.019,22.761 C129.384304,23.1882517 130.873428,22.8809 131.958,21.948 C132.39,21.585 132.822,21.228 133.242,20.853 C133.503,20.619 133.74,20.355 133.989,20.109 C134.291808,19.742292 134.800605,19.619985 135.237,19.809 C135.453252,19.9170476 135.608037,20.1182685 135.657,20.355 C135.792886,20.9082685 135.758377,21.4896895 135.558,22.023 C135.421674,22.3442837 135.216916,22.6319688 134.958,22.866 C134.838,22.989 134.712,23.103 134.589,23.22 C134.466,23.337 134.289,23.52 134.13,23.658 C133.803,23.925 133.47,24.192 133.128,24.438 C132.786,24.684 132.513,24.858 132.195,25.038 C131.770617,25.2973909 131.313607,25.4991613 130.836,25.638 C130.807189,25.6491762 130.77913,25.6622034 130.752,25.677 L130.659,25.713 L130.596,25.713 L130.437,25.764 L130.341,25.764 L130.152,25.818 L130.059,25.818 L129.912,25.866 L129.744,25.866 L129.492,25.902 L129.24,25.902 C129.078618,25.919411 128.916283,25.9264255 128.754,25.923 C128.154,25.884 127.554,25.872 126.954,25.776 C126.516403,25.6862092 126.088439,25.5546052 125.676,25.383 C125.132927,25.1655794 124.639134,24.8411453 124.224,24.429 C123.872747,24.1022572 123.576001,23.7214498 123.345,23.301 C123.234,23.094 123.135,22.887 123.024,22.68 C122.989598,22.6339532 122.950376,22.5917135 122.907,22.554 C122.808,22.662 122.724,22.761 122.631,22.854 C122.256,23.208 121.887,23.571 121.494,23.907 C121.16395,24.1912738 120.817342,24.4557375 120.456,24.699 C120.135,24.915 119.79,25.092 119.454,25.299 L119.34,25.374 L119.244,25.452 L119.148,25.482 L118.764,25.641 L118.764,25.641 L118.764,25.641 L118.647,25.698 L118.542,25.698 L118.479,25.728 L118.386,25.728 L118.257,25.773 L118.197,25.773 L117.975,25.83 L117.912,25.83 L117.759,25.866 L117.567,25.887 L117.345,25.923 L117.126,25.923 L116.733,25.923 C115.989,25.956 115.278,25.863 114.681,25.365 C114.38001,25.0988013 114.142229,24.7687782 113.985,24.399 C113.840673,24.0862909 113.744582,23.7535109 113.7,23.412 C113.643,23.037 113.607,22.659 113.562,22.284 C113.560897,22.2510112 113.546894,22.2197723 113.523,22.197 C113.516189,22.2396959 113.50616,22.2818159 113.493,22.323 C113.377742,22.6878196 113.238436,23.0446011 113.076,23.391 C112.843317,23.8437274 112.56271,24.2701702 112.239,24.663 C111.787476,25.2104954 111.184208,25.6123267 110.505,25.818 C110.163333,25.9222815 109.803634,25.9539595 109.449,25.911 C109.375013,25.9207122 109.301822,25.9357512 109.23,25.956 L109.23,25.956 Z M126.393,12.399 C126.431695,12.3859616 126.468902,12.3688664 126.504,12.348 C126.9,11.997 127.311,11.661 127.68,11.286 C128.002464,10.9516669 128.303085,10.5969343 128.58,10.224 C128.786105,9.95482163 128.965928,9.66650251 129.117,9.363 C129.341298,8.91190243 129.541578,8.44925609 129.717,7.977 C129.844426,7.64079952 129.934957,7.29175244 129.987,6.936 C130.114867,6.28124268 130.084005,5.6053796 129.897,4.965 C129.863783,4.76196103 129.718077,4.59543826 129.521245,4.53556055 C129.324413,4.47568284 129.110658,4.5328551 128.97,4.683 C128.768822,4.87259903 128.594236,5.08856006 128.451,5.325 C128.274,5.625 128.151,5.925 127.989,6.225 C127.97822,6.25443698 127.969204,6.28449025 127.962,6.315 C127.833,6.615 127.695,6.915 127.578,7.215 C127.480551,7.46435311 127.396432,7.7187123 127.326,7.977 C127.2,8.43 127.083,8.877 126.972,9.339 C126.909,9.597 126.864,9.858 126.813,10.119 C126.735,10.491 126.663,10.86 126.585,11.229 C126.54,11.439 126.486,11.646 126.45,11.853 C126.414,12.06 126.414,12.204 126.393,12.399 Z" id="Shape" fill="#ED4B58"></path>
                <path d="M119.544,13.713 C119.526127,13.7980778 119.514099,13.8842793 119.508,13.971 C119.497538,14.1168126 119.497538,14.2631874 119.508,14.409 C119.529,14.643 119.568,14.871 119.601,15.102 C119.473261,14.9472793 119.407987,14.7503883 119.418,14.55 C119.41803,14.3325034 119.430048,14.1151738 119.454,13.899 C119.473018,13.8322619 119.50347,13.7693289 119.544,13.713 L119.544,13.713 Z" id="Path" fill="#F6ABB1"></path>
                <path d="M108.348,25.689 L108.849,25.887 C108.736517,25.8640041 108.625356,25.8349619 108.516,25.8 C108.454809,25.7715292 108.39819,25.7341204 108.348,25.689 Z" id="Path" fill="#FEFBFB"></path>
                <path d="M129.534,12.393 L129.849,12.111 L129.534,12.393 Z" id="Path" fill="#F5A0A7"></path>
                <path d="M119.844,15.414 L120.165,15.564 L119.844,15.414 Z" id="Path" fill="#F6ABB1"></path>
                <path d="M11.976,25.845 L12.198,25.794 C12.1825664,25.8374977 12.1459803,25.8700962 12.1009975,25.8804301 C12.0560146,25.890764 12.0088698,25.877401 11.976,25.845 Z" id="Path" fill="#FEFDFD"></path>
                <path d="M129.849,12.108 L130.044,11.952 L129.849,12.108 Z" id="Path" fill="#F5A0A7"></path>
                <path d="M14.088,25.338 L14.31,25.257 C14.244,25.317 14.196,25.407 14.088,25.338 Z" id="Path" fill="#FEFDFD"></path>
                <path d="M130.098,11.886 L130.281,11.724 L130.098,11.886 Z" id="Path" fill="#F5A0A7"></path>
                <path d="M129.279,12.609 L129.471,12.456 L129.279,12.609 Z" id="Path" fill="#F5A0A7"></path>
                <path d="M12.324,25.785 L12.513,25.737 C12.474,25.845 12.405,25.839 12.324,25.785 Z" id="Path" fill="#FEFDFD"></path>
                <path d="M130.128,25.848 L130.317,25.794 L130.128,25.848 Z" id="Path" fill="#FEFCFC"></path>
                <path d="M11.664,25.884 L11.853,25.854 L11.664,25.884 Z" id="Path" fill="#FEFDFD"></path>
                <path d="M130.413,25.785 L130.572,25.734 L130.413,25.785 Z" id="Path" fill="#FEFCFC"></path>
                <path d="M119.67,15.252 L119.79,15.351 L119.67,15.252 Z" id="Path" fill="#F6ABB1"></path>
                <path d="M13.11,25.623 L13.239,25.575 L13.11,25.623 Z" id="Path" fill="#FEFDFD"></path>
                <path d="M13.944,25.401 L14.043,25.35 L13.944,25.401 Z" id="Path" fill="#FEFDFD"></path>
                <path d="M129.888,25.905 L130.035,25.857 L129.888,25.905 Z" id="Path" fill="#FEFCFC"></path>
                <path d="M13.362,25.56 L13.461,25.515 L13.362,25.56 Z" id="Path" fill="#FEFDFD"></path>
                <path d="M130.644,25.725 L130.737,25.689 L130.644,25.725 Z" id="Path" fill="#FEFCFC"></path>
                <path d="M13.524,25.503 L13.617,25.479 L13.524,25.503 Z" id="Path" fill="#FEFDFD"></path>
                <path d="M13.746,25.452 L13.839,25.422 L13.746,25.452 Z" id="Path" fill="#FEFDFD"></path>
                <path d="M12.639,25.722 L12.735,25.698 L12.639,25.722 Z" id="Path" fill="#FEFDFD"></path>
                <path d="M119.661,13.428 L119.607,13.527 L119.661,13.428 Z" id="Path" fill="#F6ABB1"></path>
                <path d="M12.924,25.659 L13.02,25.635 L12.924,25.659 Z" id="Path" fill="#FEFDFD"></path>
                <path d="M119.604,15.129 L119.664,15.228 L119.604,15.129 Z" id="Path" fill="#F6ABB1"></path>
                <path d="M119.79,15.351 L119.853,15.414 L119.79,15.351 Z" id="Path" fill="#F6ABB1"></path>
                <path d="M119.595,13.581 C119.58,13.608 119.568,13.635 119.556,13.662 C119.568,13.635 119.58,13.608 119.595,13.581 Z" id="Path" fill="#F6ABB1"></path>
                <path d="M129.471,12.456 L129.534,12.393 L129.471,12.456 Z" id="Path" fill="#F5A0A7"></path>
                <path d="M130.044,11.952 L130.107,11.889 L130.044,11.952 Z" id="Path" fill="#F5A0A7"></path>
                <path d="M75.78,19.641 C75.75,19.602 75.696,19.566 75.693,19.527 C75.693,19.341 75.693,19.152 75.693,18.963 C75.693,18.924 75.75,18.888 75.78,18.849 L75.78,19.641 Z" id="Path" fill="#F9CACE"></path>
                <path d="M41.733,25.89 C41.6106381,25.9428425 41.4679885,25.9028005 41.391,25.794 L41.733,25.89 Z" id="Path" fill="#FEFBFB"></path>
                <path d="M58.257,25.563 C58.149,25.623 58.095,25.542 58.035,25.476 L58.257,25.563 Z" id="Path" fill="#FEFAFB"></path>
                <path d="M59.421,25.848 L59.169,25.791 L59.421,25.848 Z" id="Path" fill="#FEFAFB"></path>
                <path d="M51.888,25.908 L51.669,25.947 L51.888,25.908 Z" id="Path" fill="#FEFBFB"></path>
                <path d="M59.106,25.788 C59.022,25.848 58.962,25.815 58.917,25.734 L59.106,25.788 Z" id="Path" fill="#FEFAFB"></path>
                <path d="M59.7,25.89 C59.622,25.917 59.541,25.956 59.484,25.854 L59.7,25.89 Z" id="Path" fill="#FEFAFB"></path>
                <path d="M70.8,25.566 L70.629,25.686 L70.8,25.566 Z" id="Path" fill="#FEFAFB"></path>
                <path d="M52.14,25.854 L51.987,25.89 L52.14,25.854 Z" id="Path" fill="#FEFBFB"></path>
                <path d="M41.328,25.782 L41.202,25.734 L41.328,25.782 Z" id="Path" fill="#FEFBFB"></path>
                <path d="M58.824,25.722 L58.665,25.683 L58.824,25.722 Z" id="Path" fill="#FEFAFB"></path>
                <path d="M70.581,25.725 L70.485,25.785 L70.581,25.725 Z" id="Path" fill="#FEFAFB"></path>
                <path d="M53.181,25.479 L53.04,25.56 L53.181,25.479 Z" id="Path" fill="#FEFBFB"></path>
                <path d="M52.704,25.686 C52.704,25.782 52.641,25.767 52.581,25.725 L52.704,25.686 Z" id="Path" fill="#FEFBFB"></path>
                <path d="M58.599,25.665 L58.476,25.632 L58.599,25.665 Z" id="Path" fill="#FEFAFB"></path>
                <path d="M41.061,25.686 L40.917,25.629 L41.061,25.686 Z" id="Path" fill="#FEFBFB"></path>
                <path d="M52.518,25.752 L52.422,25.8 L52.518,25.752 Z" id="Path" fill="#FEFBFB"></path>
                <path d="M52.344,25.794 L52.233,25.845 L52.344,25.794 Z" id="Path" fill="#FEFBFB"></path>
                <path d="M57.939,25.452 L57.846,25.422 L57.939,25.452 Z" id="Path" fill="#FEFAFB"></path>
                <path d="M40.776,25.56 L40.665,25.509 L40.776,25.56 Z" id="Path" fill="#FEFBFB"></path>
                <path d="M70.077,25.914 L69.981,25.944 L70.077,25.914 Z" id="Path" fill="#FEFAFB"></path>
                <path d="M58.425,25.626 L58.317,25.572 L58.425,25.626 Z" id="Path" fill="#FEFAFB"></path>
                <path d="M52.992,25.572 L52.878,25.623 L52.992,25.572 Z" id="Path" fill="#FEFBFB"></path>
                <path d="M40.896,25.626 L40.824,25.575 L40.896,25.626 Z" id="Path" fill="#FEFBFB"></path>
                <path d="M70.863,25.5 L70.8,25.566 L70.863,25.5 Z" id="Path" fill="#FEFAFB"></path>
                <path d="M52.833,25.632 L52.77,25.662 L52.833,25.632 Z" id="Path" fill="#FEFBFB"></path>
                <path d="M70.296,25.854 L70.236,25.881 L70.296,25.854 Z" id="Path" fill="#FEFAFB"></path>
                <path d="M41.142,25.716 L41.076,25.686 L41.142,25.716 Z" id="Path" fill="#FEFBFB"></path>
                <path d="M53.337,25.416 L53.256,25.467 L53.337,25.416 Z" id="Path" fill="#FEFBFB"></path>
                <path d="M70.422,25.794 L70.35,25.845 L70.422,25.794 Z" id="Path" fill="#FEFAFB"></path>
                <path d="M70.923,25.419 L70.86,25.5 L70.923,25.419 Z" id="Path" fill="#FEFAFB"></path>
                <path d="M118.773,25.626 L119.157,25.467 L118.773,25.626 Z" id="Path" fill="#FEFBFB"></path>
                <path d="M117.96,25.848 L118.182,25.791 L117.96,25.848 Z" id="Path" fill="#FEFBFB"></path>
                <path d="M118.242,25.782 L118.371,25.737 C118.359,25.839 118.311,25.842 118.242,25.782 Z" id="Path" fill="#FEFBFB"></path>
                <path d="M117.744,25.89 L117.897,25.854 L117.744,25.89 Z" id="Path" fill="#FEFBFB"></path>
                <path d="M118.644,25.686 L118.761,25.629 L118.644,25.686 Z" id="Path" fill="#FEFBFB"></path>
                <path d="M118.464,25.722 L118.527,25.692 L118.464,25.722 Z" id="Path" fill="#FEFBFB"></path>
                <path d="M119.244,25.452 L119.307,25.425 L119.244,25.452 Z" id="Path" fill="#FEFBFB"></path>
            </g>
        </g>
    </g>
</svg>